<svg width="418" height="185" viewBox="0 0 418 185" fill="none" xmlns="http://www.w3.org/2000/svg">
<path d="M12.2871 28.3V35.8H18.9371V28.3H12.2871ZM32.5371 0.149999V46.45H39.1871V0.149999H32.5371ZM1.58711 38.75C9.78711 38.75 20.5371 38.7 30.5871 36.85L30.1371 32.05C20.3871 33.35 9.18711 33.35 0.787109 33.4L1.58711 38.75ZM1.68711 5.25V10.45H29.5371V5.25H1.68711ZM15.5871 12.3C8.83711 12.3 4.08711 15.8 4.08711 20.95C4.08711 26.15 8.83711 29.65 15.5871 29.65C22.4371 29.65 27.1871 26.15 27.1871 20.95C27.1871 15.8 22.4371 12.3 15.5871 12.3ZM15.5871 17.3C18.6871 17.3 20.8371 18.6 20.8371 20.95C20.8371 23.35 18.6871 24.65 15.5871 24.65C12.5871 24.65 10.4371 23.35 10.4371 20.95C10.4371 18.6 12.5871 17.3 15.5871 17.3ZM12.2871 0.349997V8.25H18.9371V0.349997H12.2871ZM64.3832 12.35V17.65H73.7832V12.35H64.3832ZM64.1332 23.9V29.2H73.5832V23.9H64.1332ZM80.0832 0.149999V46.45H86.4332V0.149999H80.0832ZM70.5332 1.15V44.4H76.7332V1.15H70.5332ZM60.0832 5.6V6.95C60.0832 18.15 56.3332 25.85 45.8832 32.2L49.6332 36.85C62.5332 29.25 66.4832 18.75 66.4832 5.6H60.0832ZM48.5332 5.6V10.9H62.3332V5.6H48.5332ZM117.329 12.1V17.45H128.129V12.1H117.329ZM124.629 0.199999V33.95H131.279V0.199999H124.629ZM100.729 40.35V45.65H132.329V40.35H100.729ZM100.729 31.1V43.5H107.379V31.1H100.729ZM103.229 6.25V9.15C103.229 15 99.9293 21.05 92.2793 23.55L95.6293 28.85C104.529 25.9 108.629 17.85 108.629 9.15V6.25H103.229ZM104.629 6.25V9.15C104.629 17.4 108.579 25.1 117.179 27.95L120.429 22.75C113.129 20.3 109.979 14.55 109.979 9.15V6.25H104.629ZM94.0793 3.3V8.55H118.979V3.3H94.0793ZM138.525 23V28.3H180.425V23H138.525ZM156.675 26.35V36.1H163.375V26.35H156.675ZM143.675 2.1V19.3H175.125V2.1H143.675ZM168.575 7.3V14.1H150.175V7.3H168.575ZM143.375 40.35V45.65H175.825V40.35H143.375ZM143.375 32.2V42.1H149.975V32.2H143.375ZM214.121 0.099997V46.4H220.821V0.099997H214.121ZM219.071 17.8V23.25H227.221V17.8H219.071ZM201.971 4.9V6.05C201.971 18.6 196.221 27.1 184.071 33.4L187.771 38.45C203.171 30.7 208.471 18.8 208.471 4.9H201.971ZM186.621 4.9V10.25H205.371V4.9H186.621ZM257.579 4.6V5.4C257.579 18.5 253.729 27.25 240.079 34.45L243.729 39.5C260.329 30.8 264.029 18.85 264.029 4.6H257.579ZM242.829 4.6V9.85H261.629V4.6H242.829ZM258.229 15.95L240.379 16.95L241.229 22.55L258.229 21V15.95ZM272.579 0.149999V46.45H279.229V0.149999H272.579ZM263.979 17.9V23.3H276.079V17.9H263.979ZM296.075 27.3V46.6H302.725V27.3H296.075ZM312.375 27.3V46.6H319.025V27.3H312.375ZM286.475 25.95V31.25H328.425V25.95H286.475ZM291.325 2.35V21H323.425V2.35H291.325ZM316.875 7.55V15.75H297.875V7.55H316.875ZM364.521 0.149999V46.45H371.171V0.149999H364.521ZM334.921 4.55V33.3H341.521V4.55H334.921ZM334.921 29.4V35.05H339.021C346.071 35.05 353.721 34.55 361.671 32.9L360.921 27.4C353.271 28.9 345.771 29.4 339.021 29.4H334.921ZM380.967 30.6V36H384.967C393.217 36 399.767 35.8 407.017 34.65L406.417 29.4C399.267 30.45 393.067 30.6 384.967 30.6H380.967ZM380.967 4V32.35H387.567V9.4H404.417V4H380.967ZM386.067 16.85V22.05H402.467V16.85H386.067ZM410.367 0.149999V46.45H417.067V0.149999H410.367ZM133.208 74.35C126.258 74.35 121.258 80.75 121.258 90.85C121.258 101.05 126.258 107.45 133.208 107.45C140.108 107.45 145.158 101.05 145.158 90.85C145.158 80.75 140.108 74.35 133.208 74.35ZM133.208 80.4C136.608 80.4 138.808 84.05 138.808 90.85C138.808 97.75 136.608 101.45 133.208 101.45C129.858 101.45 127.608 97.75 127.608 90.85C127.608 84.05 129.858 80.4 133.208 80.4ZM152.758 71.1V117.55H159.358V71.1H152.758ZM143.208 87.8V93.15H155.558V87.8H143.208ZM184.004 75.6V76.4C184.004 89.4 180.704 98.25 166.304 105.5L169.854 110.55C187.104 101.8 190.504 89.9 190.504 75.6H184.004ZM169.154 75.6V80.85H187.954V75.6H169.154ZM184.154 86.95L166.754 87.95L167.554 93.65L184.154 92.05V86.95ZM196.104 71.1V117.4H202.804V71.1H196.104ZM201.054 88.8V94.25H209.204V88.8H201.054ZM212.5 93.65V98.9H254.45V93.65H212.5ZM230.45 97.1V106.85H237.2V97.1H230.45ZM217.4 111.3V116.65H249.85V111.3H217.4ZM217.4 102.8V112.65H224.1V102.8H217.4ZM233.45 72C223.45 72 216.8 75.75 216.8 81.6C216.8 87.5 223.45 91.2 233.45 91.2C243.4 91.2 250.1 87.5 250.1 81.6C250.1 75.75 243.4 72 233.45 72ZM233.45 77.25C239.3 77.25 242.95 78.75 242.95 81.6C242.95 84.45 239.3 85.9 233.45 85.9C227.6 85.9 223.95 84.45 223.95 81.6C223.95 78.75 227.6 77.25 233.45 77.25ZM258.446 95.7V100.95H300.346V95.7H258.446ZM276.046 90.25V97.1H282.696V90.25H276.046ZM263.146 103.7V108.95H288.596V117.45H295.246V103.7H263.146ZM263.646 87.35V92.4H295.896V87.35H263.646ZM263.646 72.2V89.9H270.246V77.25H295.546V72.2H263.646ZM268.396 79.8V84.65H294.496V79.8H268.396ZM73.6325 184H62.9791L74.982 147.636H88.4763L100.479 184H89.8257L81.8712 157.651H81.5871L73.6325 184ZM71.6439 169.653H91.6723V177.04H71.6439V169.653ZM115.114 184.497C112.155 184.497 109.622 183.911 107.515 182.739C105.408 181.556 103.792 179.91 102.668 177.803C101.543 175.684 100.981 173.228 100.981 170.435C100.981 167.641 101.543 165.191 102.668 163.084C103.792 160.965 105.408 159.32 107.515 158.148C109.622 156.964 112.155 156.372 115.114 156.372C117.789 156.372 120.104 156.857 122.057 157.828C124.022 158.787 125.543 160.148 126.62 161.912C127.697 163.664 128.242 165.723 128.253 168.091H119.163C119.032 166.659 118.618 165.57 117.92 164.824C117.233 164.066 116.345 163.688 115.256 163.688C114.404 163.688 113.658 163.936 113.019 164.433C112.38 164.919 111.883 165.658 111.528 166.653C111.172 167.635 110.995 168.872 110.995 170.364C110.995 171.855 111.172 173.098 111.528 174.092C111.883 175.075 112.38 175.815 113.019 176.312C113.658 176.797 114.404 177.04 115.256 177.04C115.978 177.04 116.618 176.874 117.174 176.543C117.73 176.199 118.18 175.702 118.523 175.051C118.878 174.388 119.092 173.583 119.163 172.636H128.253C128.218 175.039 127.668 177.134 126.602 178.922C125.537 180.697 124.028 182.071 122.074 183.041C120.133 184.012 117.813 184.497 115.114 184.497ZM145.437 184.497C142.477 184.497 139.944 183.911 137.837 182.739C135.73 181.556 134.114 179.91 132.99 177.803C131.865 175.684 131.303 173.228 131.303 170.435C131.303 167.641 131.865 165.191 132.99 163.084C134.114 160.965 135.73 159.32 137.837 158.148C139.944 156.964 142.477 156.372 145.437 156.372C148.112 156.372 150.426 156.857 152.379 157.828C154.344 158.787 155.865 160.148 156.942 161.912C158.019 163.664 158.564 165.723 158.576 168.091H149.485C149.355 166.659 148.94 165.57 148.242 164.824C147.555 164.066 146.668 163.688 145.579 163.688C144.726 163.688 143.981 163.936 143.341 164.433C142.702 164.919 142.205 165.658 141.85 166.653C141.495 167.635 141.317 168.872 141.317 170.364C141.317 171.855 141.495 173.098 141.85 174.092C142.205 175.075 142.702 175.815 143.341 176.312C143.981 176.797 144.726 177.04 145.579 177.04C146.301 177.04 146.94 176.874 147.496 176.543C148.053 176.199 148.502 175.702 148.846 175.051C149.201 174.388 149.414 173.583 149.485 172.636H158.576C158.54 175.039 157.99 177.134 156.924 178.922C155.859 180.697 154.35 182.071 152.397 183.041C150.455 184.012 148.135 184.497 145.437 184.497ZM175.759 184.497C172.8 184.497 170.266 183.911 168.159 182.739C166.052 181.556 164.437 179.91 163.312 177.803C162.188 175.684 161.625 173.228 161.625 170.435C161.625 167.641 162.188 165.191 163.312 163.084C164.437 160.965 166.052 159.32 168.159 158.148C170.266 156.964 172.8 156.372 175.759 156.372C178.718 156.372 181.251 156.964 183.358 158.148C185.465 159.32 187.081 160.965 188.206 163.084C189.33 165.191 189.892 167.641 189.892 170.435C189.892 173.228 189.33 175.684 188.206 177.803C187.081 179.91 185.465 181.556 183.358 182.739C181.251 183.911 178.718 184.497 175.759 184.497ZM175.83 177.253C176.658 177.253 177.375 176.975 177.978 176.418C178.582 175.862 179.05 175.069 179.381 174.039C179.712 173.009 179.878 171.784 179.878 170.364C179.878 168.931 179.712 167.706 179.381 166.688C179.05 165.658 178.582 164.865 177.978 164.309C177.375 163.753 176.658 163.474 175.83 163.474C174.954 163.474 174.202 163.753 173.575 164.309C172.947 164.865 172.468 165.658 172.137 166.688C171.805 167.706 171.639 168.931 171.639 170.364C171.639 171.784 171.805 173.009 172.137 174.039C172.468 175.069 172.947 175.862 173.575 176.418C174.202 176.975 174.954 177.253 175.83 177.253ZM211.554 172.068V156.727H221.355V184H212.051V178.815H211.767C211.175 180.555 210.14 181.917 208.66 182.899C207.18 183.87 205.423 184.355 203.387 184.355C201.481 184.355 199.812 183.917 198.38 183.041C196.959 182.165 195.852 180.958 195.059 179.419C194.278 177.88 193.881 176.116 193.87 174.128V156.727H203.671V172.068C203.683 173.418 204.026 174.477 204.701 175.246C205.387 176.016 206.346 176.401 207.577 176.401C208.394 176.401 209.098 176.229 209.69 175.886C210.294 175.531 210.755 175.033 211.075 174.394C211.406 173.743 211.566 172.968 211.554 172.068ZM236.141 168.659V184H226.34V156.727H235.644V161.912H235.928C236.52 160.184 237.562 158.828 239.053 157.846C240.557 156.863 242.309 156.372 244.309 156.372C246.238 156.372 247.913 156.816 249.334 157.704C250.766 158.58 251.873 159.787 252.654 161.326C253.447 162.865 253.838 164.623 253.826 166.599V184H244.025V168.659C244.037 167.31 243.694 166.25 242.995 165.481C242.309 164.711 241.35 164.327 240.119 164.327C239.314 164.327 238.609 164.504 238.006 164.859C237.414 165.203 236.958 165.7 236.639 166.351C236.319 166.99 236.153 167.759 236.141 168.659ZM255.233 155.591V147.636H286.838V155.591H275.901V184H266.171V155.591H255.233ZM294.584 184.426C292.844 184.426 291.305 184.142 289.968 183.574C288.642 182.994 287.6 182.118 286.843 180.946C286.085 179.774 285.706 178.283 285.706 176.472C285.706 174.98 285.961 173.708 286.47 172.654C286.979 171.589 287.689 170.719 288.601 170.044C289.512 169.369 290.571 168.854 291.779 168.499C292.998 168.144 294.312 167.913 295.721 167.807C297.248 167.688 298.473 167.546 299.396 167.381C300.331 167.203 301.006 166.96 301.42 166.653C301.834 166.333 302.042 165.913 302.042 165.392V165.321C302.042 164.611 301.769 164.066 301.225 163.688C300.68 163.309 299.982 163.119 299.13 163.119C298.195 163.119 297.431 163.326 296.839 163.741C296.259 164.143 295.91 164.765 295.792 165.605H286.772C286.89 163.948 287.417 162.421 288.352 161.024C289.299 159.616 290.678 158.491 292.489 157.651C294.3 156.798 296.561 156.372 299.272 156.372C301.225 156.372 302.977 156.603 304.527 157.065C306.078 157.514 307.398 158.148 308.487 158.964C309.576 159.769 310.405 160.716 310.973 161.805C311.553 162.883 311.843 164.054 311.843 165.321V184H302.681V180.165H302.468C301.923 181.183 301.26 182.005 300.479 182.633C299.71 183.26 298.828 183.716 297.834 184C296.851 184.284 295.768 184.426 294.584 184.426ZM297.78 178.247C298.526 178.247 299.224 178.093 299.875 177.786C300.538 177.478 301.077 177.034 301.491 176.454C301.906 175.874 302.113 175.17 302.113 174.341V172.068C301.852 172.175 301.574 172.275 301.278 172.37C300.994 172.465 300.686 172.554 300.355 172.636C300.035 172.719 299.692 172.796 299.325 172.867C298.97 172.938 298.597 173.003 298.206 173.062C297.449 173.181 296.827 173.376 296.342 173.648C295.869 173.909 295.513 174.234 295.277 174.625C295.052 175.004 294.939 175.43 294.939 175.903C294.939 176.661 295.206 177.241 295.738 177.643C296.271 178.046 296.952 178.247 297.78 178.247ZM326.327 147.636V184H316.526V147.636H326.327ZM340.128 177.537L340.199 165.889H341.477L348.082 156.727H359.091L348.011 171.003H345.241L340.128 177.537ZM331.321 184V147.636H341.122V184H331.321ZM348.153 184L341.903 173.205L348.295 166.244L359.375 184H348.153Z" fill="white"/>
</svg>
