<svg width="300" height="115" viewBox="0 0 961 349" fill="none" xmlns="http://www.w3.org/2000/svg">
          <path d="M29.625 65.49V82.74H44.92V65.49H29.625ZM76.2 0.744999V107.235H91.495V0.744999H76.2ZM5.015 89.525C23.875 89.525 48.6 89.41 71.715 85.155L70.68 74.115C48.255 77.105 22.495 77.105 3.175 77.22L5.015 89.525ZM5.245 12.475V24.435H69.3V12.475H5.245ZM37.215 28.69C21.69 28.69 10.765 36.74 10.765 48.585C10.765 60.545 21.69 68.595 37.215 68.595C52.97 68.595 63.895 60.545 63.895 48.585C63.895 36.74 52.97 28.69 37.215 28.69ZM37.215 40.19C44.345 40.19 49.29 43.18 49.29 48.585C49.29 54.105 44.345 57.095 37.215 57.095C30.315 57.095 25.37 54.105 25.37 48.585C25.37 43.18 30.315 40.19 37.215 40.19ZM29.625 1.20499V19.375H44.92V1.20499H29.625ZM149.446 28.805V40.995H171.066V28.805H149.446ZM148.871 55.37V67.56H170.606V55.37H148.871ZM185.556 0.744999V107.235H200.161V0.744999H185.556ZM163.591 3.045V102.52H177.851V3.045H163.591ZM139.556 13.28V16.385C139.556 42.145 130.931 59.855 106.896 74.46L115.521 85.155C145.191 67.675 154.276 43.525 154.276 13.28H139.556ZM112.991 13.28V25.47H144.731V13.28H112.991ZM271.222 28.23V40.535H296.062V28.23H271.222ZM288.012 0.859997V78.485H303.307V0.859997H288.012ZM233.042 93.205V105.395H305.722V93.205H233.042ZM233.042 71.93V100.45H248.337V71.93H233.042ZM238.792 14.775V21.445C238.792 34.9 231.202 48.815 213.607 54.565L221.312 66.755C241.782 59.97 251.212 41.455 251.212 21.445V14.775H238.792ZM242.012 14.775V21.445C242.012 40.42 251.097 58.13 270.877 64.685L278.352 52.725C261.562 47.09 254.317 33.865 254.317 21.445V14.775H242.012ZM217.747 7.98999V20.065H275.017V7.98999H217.747ZM319.973 53.3V65.49H416.343V53.3H319.973ZM361.718 61.005V83.43H377.128V61.005H361.718ZM331.818 5.23V44.79H404.153V5.23H331.818ZM389.088 17.19V32.83H346.768V17.19H389.088ZM331.128 93.205V105.395H405.763V93.205H331.128ZM331.128 74.46V97.23H346.308V74.46H331.128ZM493.844 0.629993V107.12H509.254V0.629993H493.844ZM505.229 41.34V53.875H523.974V41.34H505.229ZM465.899 11.67V14.315C465.899 43.18 452.674 62.73 424.729 77.22L433.239 88.835C468.659 71.01 480.849 43.64 480.849 11.67H465.899ZM430.594 11.67V23.975H473.719V11.67H430.594ZM593.795 10.98V12.82C593.795 42.95 584.94 63.075 553.545 79.635L561.94 91.25C600.12 71.24 608.63 43.755 608.63 10.98H593.795ZM559.87 10.98V23.055H603.11V10.98H559.87ZM595.29 37.085L554.235 39.385L556.19 52.265L595.29 48.7V37.085ZM628.295 0.744999V107.235H643.59V0.744999H628.295ZM608.515 41.57V53.99H636.345V41.57H608.515ZM682.336 63.19V107.58H697.631V63.19H682.336ZM719.826 63.19V107.58H735.121V63.19H719.826ZM660.256 60.085V72.275H756.741V60.085H660.256ZM671.411 5.805V48.7H745.241V5.805H671.411ZM730.176 17.765V36.625H686.476V17.765H730.176ZM839.762 0.744999V107.235H855.057V0.744999H839.762ZM771.682 10.865V76.99H786.862V10.865H771.682ZM771.682 68.02V81.015H781.112C797.327 81.015 814.922 79.865 833.207 76.07L831.482 63.42C813.887 66.87 796.637 68.02 781.112 68.02H771.682ZM877.588 70.78V83.2H886.788C905.763 83.2 920.828 82.74 937.503 80.095L936.123 68.02C919.678 70.435 905.418 70.78 886.788 70.78H877.588ZM877.588 9.59999V74.805H892.768V22.02H931.523V9.59999H877.588ZM889.318 39.155V51.115H927.038V39.155H889.318ZM945.208 0.744999V107.235H960.618V0.744999H945.208ZM31.81 133.105C15.825 133.105 4.325 147.825 4.325 171.055C4.325 194.515 15.825 209.235 31.81 209.235C47.68 209.235 59.295 194.515 59.295 171.055C59.295 147.825 47.68 133.105 31.81 133.105ZM31.81 147.02C39.63 147.02 44.69 155.415 44.69 171.055C44.69 186.925 39.63 195.435 31.81 195.435C24.105 195.435 18.93 186.925 18.93 171.055C18.93 155.415 24.105 147.02 31.81 147.02ZM76.775 125.63V232.465H91.955V125.63H76.775ZM54.81 164.04V176.345H83.215V164.04H54.81ZM148.641 135.98V137.82C148.641 167.72 141.051 188.075 107.931 204.75L116.096 216.365C155.771 196.24 163.591 168.87 163.591 135.98H148.641ZM114.486 135.98V148.055H157.726V135.98H114.486ZM148.986 162.085L108.966 164.385L110.806 177.495L148.986 173.815V162.085ZM176.471 125.63V232.12H191.881V125.63H176.471ZM187.856 166.34V178.875H206.601V166.34H187.856ZM214.182 177.495V189.57H310.667V177.495H214.182ZM255.467 185.43V207.855H270.992V185.43H255.467ZM225.452 218.09V230.395H300.087V218.09H225.452ZM225.452 198.54V221.195H240.862V198.54H225.452ZM262.367 127.7C239.367 127.7 224.072 136.325 224.072 149.78C224.072 163.35 239.367 171.86 262.367 171.86C285.252 171.86 300.662 163.35 300.662 149.78C300.662 136.325 285.252 127.7 262.367 127.7ZM262.367 139.775C275.822 139.775 284.217 143.225 284.217 149.78C284.217 156.335 275.822 159.67 262.367 159.67C248.912 159.67 240.517 156.335 240.517 149.78C240.517 143.225 248.912 139.775 262.367 139.775ZM319.858 182.21V194.285H416.228V182.21H319.858ZM360.338 169.675V185.43H375.633V169.675H360.338ZM330.668 200.61V212.685H389.203V232.235H404.498V200.61H330.668ZM331.818 163.005V174.62H405.993V163.005H331.818ZM331.818 128.16V168.87H346.998V139.775H405.188V128.16H331.818ZM342.743 145.64V156.795H402.773V145.64H342.743ZM25.1165 347H0.613636L28.2202 263.364H59.2571L86.8636 347H62.3608L44.0653 286.396H43.4119L25.1165 347ZM20.5426 314.003H66.608V330.991H20.5426V314.003ZM120.524 348.143C113.718 348.143 107.892 346.796 103.046 344.1C98.1996 341.378 94.4833 337.594 91.8969 332.748C89.3105 327.874 88.0173 322.225 88.0173 315.8C88.0173 309.375 89.3105 303.739 91.8969 298.893C94.4833 294.019 98.1996 290.235 103.046 287.54C107.892 284.817 113.718 283.456 120.524 283.456C126.677 283.456 132 284.572 136.492 286.805C141.012 289.01 144.51 292.141 146.987 296.197C149.465 300.227 150.717 304.964 150.745 310.409H129.835C129.536 307.115 128.583 304.61 126.977 302.895C125.398 301.152 123.356 300.281 120.851 300.281C118.891 300.281 117.176 300.853 115.706 301.996C114.235 303.113 113.092 304.814 112.275 307.101C111.458 309.361 111.05 312.206 111.05 315.636C111.05 319.067 111.458 321.925 112.275 324.212C113.092 326.472 114.235 328.174 115.706 329.317C117.176 330.433 118.891 330.991 120.851 330.991C122.512 330.991 123.982 330.61 125.262 329.848C126.541 329.058 127.576 327.915 128.365 326.418C129.182 324.893 129.672 323.042 129.835 320.864H150.745C150.663 326.39 149.397 331.209 146.947 335.32C144.496 339.404 141.025 342.562 136.533 344.795C132.068 347.027 126.732 348.143 120.524 348.143ZM190.266 348.143C183.459 348.143 177.633 346.796 172.787 344.1C167.941 341.378 164.225 337.594 161.638 332.748C159.052 327.874 157.759 322.225 157.759 315.8C157.759 309.375 159.052 303.739 161.638 298.893C164.225 294.019 167.941 290.235 172.787 287.54C177.633 284.817 183.459 283.456 190.266 283.456C196.419 283.456 201.741 284.572 206.233 286.805C210.753 289.01 214.251 292.141 216.729 296.197C219.206 300.227 220.459 304.964 220.486 310.409H199.577C199.277 307.115 198.324 304.61 196.718 302.895C195.139 301.152 193.097 300.281 190.592 300.281C188.632 300.281 186.917 300.853 185.447 301.996C183.977 303.113 182.833 304.814 182.016 307.101C181.2 309.361 180.791 312.206 180.791 315.636C180.791 319.067 181.2 321.925 182.016 324.212C182.833 326.472 183.977 328.174 185.447 329.317C186.917 330.433 188.632 330.991 190.592 330.991C192.253 330.991 193.723 330.61 195.003 329.848C196.282 329.058 197.317 327.915 198.107 326.418C198.923 324.893 199.413 323.042 199.577 320.864H220.486C220.404 326.39 219.138 331.209 216.688 335.32C214.238 339.404 210.766 342.562 206.274 344.795C201.809 347.027 196.473 348.143 190.266 348.143ZM260.007 348.143C253.2 348.143 247.374 346.796 242.528 344.1C237.682 341.378 233.966 337.594 231.379 332.748C228.793 327.874 227.5 322.225 227.5 315.8C227.5 309.375 228.793 303.739 231.379 298.893C233.966 294.019 237.682 290.235 242.528 287.54C247.374 284.817 253.2 283.456 260.007 283.456C266.813 283.456 272.639 284.817 277.486 287.54C282.332 290.235 286.048 294.019 288.634 298.893C291.221 303.739 292.514 309.375 292.514 315.8C292.514 322.225 291.221 327.874 288.634 332.748C286.048 337.594 282.332 341.378 277.486 344.1C272.639 346.796 266.813 348.143 260.007 348.143ZM260.17 331.482C262.076 331.482 263.723 330.842 265.112 329.562C266.5 328.283 267.575 326.458 268.338 324.09C269.1 321.721 269.481 318.903 269.481 315.636C269.481 312.342 269.1 309.524 268.338 307.183C267.575 304.814 266.5 302.99 265.112 301.711C263.723 300.431 262.076 299.791 260.17 299.791C258.156 299.791 256.427 300.431 254.984 301.711C253.541 302.99 252.438 304.814 251.676 307.183C250.914 309.524 250.532 312.342 250.532 315.636C250.532 318.903 250.914 321.721 251.676 324.09C252.438 326.458 253.541 328.283 254.984 329.562C256.427 330.842 258.156 331.482 260.17 331.482ZM342.336 319.557V284.273H364.879V347H343.48V335.075H342.826C341.465 339.077 339.083 342.208 335.68 344.468C332.277 346.701 328.234 347.817 323.551 347.817C319.168 347.817 315.329 346.809 312.035 344.795C308.767 342.78 306.222 340.003 304.398 336.464C302.601 332.924 301.689 328.868 301.662 324.294V284.273H324.204V319.557C324.232 322.661 325.021 325.097 326.573 326.867C328.152 328.636 330.357 329.521 333.189 329.521C335.067 329.521 336.687 329.127 338.048 328.337C339.437 327.52 340.499 326.377 341.234 324.907C341.996 323.409 342.364 321.626 342.336 319.557ZM398.887 311.716V347H376.344V284.273H397.743V296.197H398.397C399.758 292.223 402.154 289.105 405.584 286.846C409.042 284.586 413.071 283.456 417.672 283.456C422.11 283.456 425.963 284.477 429.23 286.519C432.524 288.533 435.069 291.31 436.866 294.85C438.69 298.389 439.589 302.432 439.562 306.979V347H417.019V311.716C417.046 308.612 416.257 306.176 414.65 304.406C413.071 302.636 410.866 301.751 408.035 301.751C406.183 301.751 404.563 302.16 403.175 302.977C401.814 303.766 400.765 304.91 400.03 306.407C399.295 307.877 398.914 309.647 398.887 311.716ZM442.798 281.659V263.364H515.49V281.659H490.334V347H467.954V281.659H442.798ZM533.305 347.98C529.303 347.98 525.764 347.327 522.688 346.02C519.638 344.686 517.242 342.671 515.5 339.976C513.758 337.281 512.886 333.85 512.886 329.685C512.886 326.254 513.472 323.328 514.642 320.904C515.813 318.454 517.447 316.453 519.543 314.901C521.639 313.349 524.076 312.165 526.853 311.348C529.657 310.532 532.679 310.001 535.919 309.756C539.431 309.483 542.249 309.157 544.373 308.776C546.523 308.367 548.075 307.809 549.028 307.101C549.981 306.366 550.457 305.4 550.457 304.202V304.038C550.457 302.405 549.831 301.152 548.579 300.281C547.326 299.41 545.72 298.974 543.76 298.974C541.609 298.974 539.853 299.451 538.492 300.404C537.158 301.329 536.355 302.759 536.082 304.692H515.337C515.609 300.88 516.82 297.368 518.971 294.156C521.149 290.916 524.321 288.329 528.487 286.396C532.652 284.436 537.852 283.456 544.087 283.456C548.579 283.456 552.608 283.987 556.175 285.049C559.741 286.083 562.777 287.54 565.282 289.418C567.786 291.27 569.692 293.448 570.999 295.952C572.333 298.43 573 301.125 573 304.038V347H551.928V338.179H551.438C550.185 340.52 548.661 342.413 546.864 343.855C545.094 345.298 543.066 346.347 540.779 347C538.519 347.653 536.028 347.98 533.305 347.98ZM540.656 333.768C542.371 333.768 543.978 333.415 545.475 332.707C547 331.999 548.239 330.978 549.191 329.644C550.144 328.31 550.621 326.69 550.621 324.784V319.557C550.022 319.802 549.382 320.033 548.701 320.251C548.048 320.469 547.34 320.673 546.578 320.864C545.843 321.054 545.053 321.231 544.209 321.395C543.392 321.558 542.535 321.708 541.636 321.844C539.894 322.116 538.465 322.565 537.348 323.191C536.259 323.79 535.443 324.539 534.898 325.438C534.381 326.309 534.122 327.289 534.122 328.378C534.122 330.12 534.735 331.454 535.96 332.38C537.185 333.306 538.75 333.768 540.656 333.768ZM606.314 263.364V347H583.771V263.364H606.314ZM638.055 332.135L638.218 305.345H641.159L656.35 284.273H681.67L656.187 317.107H649.816L638.055 332.135ZM617.799 347V263.364H640.342V347H617.799ZM656.514 347L642.139 322.17L656.841 306.162L682.324 347H656.514Z" fill="white"/>
        </svg>